<svg width="24" height="24" xmlns="http://www.w3.org/2000/svg">
 <title>heart</title>

 <g>
  <title>background</title>
  <rect fill="none" id="canvas_background" height="602" width="802" y="-1" x="-1"/>
 </g>
 <g>
  <title>Layer 1</title>
  <path id="svg_1" d="m20.133,5.317c0.88,0.881 1.319,2.031 1.319,3.184s-0.44,2.303 -1.319,3.182l-8.133,8.133l-8.133,-8.133c-0.879,-0.879 -1.318,-2.029 -1.318,-3.183s0.439,-2.304 1.318,-3.183s2.029,-1.318 3.183,-1.318s2.304,0.439 3.183,1.318l1.06,1.06c0.391,0.391 1.024,0.391 1.414,0l1.062,-1.062c0.879,-0.879 2.029,-1.318 3.182,-1.317s2.303,0.44 3.182,1.319zm1.414,-1.414c-1.269,-1.269 -2.934,-1.904 -4.596,-1.905s-3.327,0.634 -4.597,1.903l-0.354,0.355l-0.353,-0.353c-1.269,-1.269 -2.935,-1.904 -4.597,-1.904s-3.328,0.635 -4.597,1.904s-1.904,2.935 -1.904,4.597s0.635,3.328 1.904,4.597l8.84,8.84c0.391,0.391 1.024,0.391 1.414,0l8.84,-8.84c1.269,-1.269 1.904,-2.934 1.905,-4.596s-0.634,-3.327 -1.905,-4.598z"/>
  <ellipse stroke="#000" ry="4.47619" rx="5" id="svg_3" cy="8.71429" cx="7.04762" stroke-width="1.5" fill="#000000"/>
  <ellipse stroke="#000" ry="4.47619" rx="5" id="svg_4" cy="8.42858" cx="16.7619" stroke-width="1.5" fill="#000000"/>
  <ellipse stroke="#000" ry="4.47619" rx="6.14285" id="svg_5" cy="13.57143" cx="11.52381" stroke-width="1.5" fill="#000000"/>
  <ellipse stroke="#000" ry="0.42857" rx="2" id="svg_2" cy="18.95238" cx="11.76191" stroke-width="1.5" fill="#000000"/>
 </g>
</svg>