<svg width="0" height="0" class="hidden">
  <symbol xmlns="http://www.w3.org/2000/svg" viewBox="0 0 32 32" id="baseball">
    <title>baseball</title>
    <path d="M25 25.665C22.77 27.734 19.783 29 16.5 29s-6.27-1.265-8.5-3.335a12.578 12.578 0 001.484-1.643l.736.535.588-.809-.753-.547c.496-.78.909-1.619 1.224-2.504l.93.302.309-.951-.942-.306c.236-.879.377-1.797.415-2.742h1.01v-1h-1.01a12.453 12.453 0 00-.415-2.742l.942-.306-.309-.951-.93.302a12.445 12.445 0 00-1.224-2.504l.753-.547-.588-.809-.736.534A12.643 12.643 0 008 7.334c2.23-2.069 5.217-3.335 8.5-3.335s6.27 1.265 8.5 3.335a12.578 12.578 0 00-1.484 1.643l-.736-.534-.588.809.753.547c-.496.78-.909 1.619-1.224 2.504l-.93-.302-.309.951.942.306A12.563 12.563 0 0021.009 16h-1.01v1h1.01c.037.945.179 1.862.415 2.742l-.942.306.309.951.93-.302c.315.885.728 1.724 1.224 2.504l-.753.547.588.809.736-.535c.446.591.942 1.14 1.484 1.643zm1.267-1.364A12.447 12.447 0 0029 16.5c0-3.261-1.249-6.23-3.294-8.456-.504.465-.966.974-1.381 1.521l.882.641-.588.809-.863-.627c-.437.695-.801 1.44-1.083 2.224l.971.316-.309.951-.959-.312a11.46 11.46 0 00-.366 2.432h.989v1h-.989c.036.837.161 1.651.366 2.432l.959-.311.309.951-.971.316c.282.784.646 1.529 1.083 2.224l.863-.627.588.809-.882.641c.414.547.877 1.057 1.381 1.521-.014.015.369-.414.562-.655zM6.645 24.19A12.448 12.448 0 014 16.5c0-3.261 1.249-6.23 3.294-8.456.504.465.966.974 1.381 1.521l-.882.641.588.809.863-.627c.437.695.801 1.44 1.083 2.224l-.971.316.309.951.959-.312c.205.781.331 1.595.366 2.432h-.989v1h.989a11.523 11.523 0 01-.366 2.432l-.959-.311-.309.951.971.316a11.472 11.472 0 01-1.083 2.224l-.863-.627-.588.809.882.641a11.515 11.515 0 01-1.381 1.521c.014.015-.431-.486-.649-.765z"></path>
  </symbol>
  <symbol xmlns="http://www.w3.org/2000/svg" viewBox="0 0 32 32" id="baseball-set">
    <title>baseball-set</title>
    <path d="M27.782 24.266a4.501 4.501 0 00-4-4 4.5 4.5 0 01-4.95 4.95 4.501 4.501 0 004 4 4.5 4.5 0 014.95-4.95zm-.006 1.006a4.501 4.501 0 01-3.938 3.938 3.5 3.5 0 013.938-3.938zm-5.001-5a4.501 4.501 0 00-3.938 3.938 3.5 3.5 0 003.938-3.938zm-9.658-4.392l-7.39 8.375 2.285 2.285 8.375-7.39-3.27-3.27zm.663-.752l9.762-11.064c1.204-1.364 3.207-1.423 4.486-.144l.319.319c1.278 1.278 1.214 3.287-.144 4.486l-11.064 9.762-3.359-3.359zM7.328 27.269a1.5 1.5 0 01-2.475 1.559l-1.414-1.414a1.501 1.501 0 011.557-2.477l2.332 2.332z"></path>
  </symbol>
  <symbol xmlns="http://www.w3.org/2000/svg" viewBox="0 0 32 32" id="basketball">
    <title>basketball</title>
    <path d="M4.088 17.99A12.682 12.682 0 014 16.497c0-2.803.922-5.39 2.48-7.474a18.403 18.403 0 018.365 2.505A11.5 11.5 0 014.5 17.998c-.119 0-.393-.007-.412-.007zm.162 1.005c1.157 5.707 6.202 10.002 12.25 10.002.332 0 .66-.013.986-.038A12.514 12.514 0 0117 25.497a12.46 12.46 0 013.564-8.741 18.602 18.602 0 00-4.867-4.697 12.501 12.501 0 01-11.448 6.936zM15.733 4.021a12.469 12.469 0 00-8.47 4.055 19.384 19.384 0 017.983 2.527c.488-1.275.755-2.659.755-4.106 0-.85-.092-1.679-.267-2.477zM16.75 4c5.593.11 10.285 3.893 11.764 9.036a12.45 12.45 0 00-7.216 3.028 19.61 19.61 0 00-5.187-4.929 12.47 12.47 0 00.888-4.637c0-.855-.086-1.691-.25-2.498zm7.224 22.518a12.437 12.437 0 01-5.481 2.322A11.493 11.493 0 0118 25.498c0-3.056 1.192-5.833 3.136-7.892a18.402 18.402 0 012.839 8.912zm.947-.783A12.468 12.468 0 0029 16.497c0-.848-.084-1.676-.245-2.476a11.453 11.453 0 00-6.886 2.873 19.38 19.38 0 013.053 8.84z"></path>
  </symbol>
  <symbol xmlns="http://www.w3.org/2000/svg" viewBox="0 0 32 32" id="basketball1">
    <title>basketball1</title>
    <path d="M15.99 28.98V16.99h-4.01a12.468 12.468 0 01-3.99 8.665 12.452 12.452 0 008 3.325zm-9.389-4.844A12.445 12.445 0 014 16.99h6.979a11.47 11.47 0 01-3.695 7.956c.014.015-.455-.515-.684-.81zm19.095.81a12.45 12.45 0 003.284-7.956h-6.979a11.47 11.47 0 003.695 7.956zm-.706.709a12.452 12.452 0 01-8 3.325V16.99H21a12.468 12.468 0 003.99 8.665zm.706-17.621a12.45 12.45 0 013.284 7.956h-6.979a11.47 11.47 0 013.695-7.956zm-.706-.709a12.452 12.452 0 00-8-3.325v11.99H21a12.468 12.468 0 013.99-8.665zm-17.706.709A12.45 12.45 0 004 15.99h6.979a11.47 11.47 0 00-3.695-7.956zm.706-.709a12.452 12.452 0 018-3.325v11.99h-4.01a12.468 12.468 0 00-3.99-8.665z"></path>
  </symbol>
  <symbol xmlns="http://www.w3.org/2000/svg" viewBox="0 0 32 32" id="billiard-ball">
    <title>billiard-ball</title>
    <path d="M18 16.5a2.5 2.5 0 11-3 0 2.5 2.5 0 113 0zM16.5 29C9.596 29 4 23.404 4 16.5S9.596 4 16.5 4 29 9.596 29 16.5 23.404 29 16.5 29zm0-6a6.5 6.5 0 100-13 6.5 6.5 0 000 13zm0-3a1.5 1.5 0 10-.001-3.001A1.5 1.5 0 0016.5 20zm0-4a1.5 1.5 0 10-.001-3.001A1.5 1.5 0 0016.5 16z"></path>
  </symbol>
  <symbol xmlns="http://www.w3.org/2000/svg" viewBox="0 0 24 28" id="black-tie">
    <title>black-tie</title>
    <path d="M0 2h24v24H0V2zm16.953 17.422L13.5 9.563l3.453-4.641H7.047L10.5 9.563l-3.453 9.859L12 24.172z"></path>
  </symbol>
  <symbol xmlns="http://www.w3.org/2000/svg" viewBox="0 0 32 32" id="bowling-ball">
    <title>bowling-ball</title>
    <path d="M16.5 29C9.596 29 4 23.404 4 16.5S9.596 4 16.5 4 29 9.596 29 16.5 23.404 29 16.5 29zm0-16a1.5 1.5 0 10-.001-3.001A1.5 1.5 0 0016.5 13zm3 5a1.5 1.5 0 10-.001-3.001A1.5 1.5 0 0019.5 18zm-6 0a1.5 1.5 0 10-.001-3.001A1.5 1.5 0 0013.5 18z"></path>
  </symbol>
  <symbol xmlns="http://www.w3.org/2000/svg" viewBox="0 0 28 28" id="briefcase1">
    <title>briefcase1</title>
    <path d="M10 4h8V2h-8v2zm18 10v7.5c0 1.375-1.125 2.5-2.5 2.5h-23A2.507 2.507 0 010 21.5V14h10.5v2.5c0 .547.453 1 1 1h5c.547 0 1-.453 1-1V14H28zm-12 0v2h-4v-2h4zm12-7.5v6H0v-6C0 5.125 1.125 4 2.5 4H8V1.5A1.5 1.5 0 019.5 0h9A1.5 1.5 0 0120 1.5V4h5.5C26.875 4 28 5.125 28 6.5z"></path>
  </symbol>
  <symbol xmlns="http://www.w3.org/2000/svg" viewBox="0 0 512 512" id="car-sport">
    <title>Car Sport</title>
    <path d="M494.26 276.22c-3.6-40.41-9.53-48.28-11.77-51.24-5.15-6.84-13.39-11.31-22.11-16a3.6 3.6 0 01-.91-5.68 15.93 15.93 0 004.53-12.53A16.27 16.27 0 00447.65 176h-15.6a17 17 0 00-2 .13 8.5 8.5 0 00-1.41-.47c-9.24-19.53-21.89-46.27-48.11-59.32C341.64 97 270 96 256 96s-85.64 1-124.48 20.31c-26.22 13.05-38.87 39.79-48.11 59.32l-.08.16a6.52 6.52 0 00-1.35.34 17 17 0 00-2-.13H64.35A16.27 16.27 0 0048 190.77a15.93 15.93 0 004.59 12.47 3.6 3.6 0 01-.91 5.68c-8.72 4.72-17 9.19-22.11 16-2.24 3-8.16 10.83-11.77 51.24-2 22.74-2.3 46.28-.73 61.44 3.29 31.5 9.46 50.54 9.72 51.33a16 16 0 0013.2 10.87v.2a16 16 0 0016 16h56a16 16 0 0016-16c8.61 0 14.6-1.54 20.95-3.18a158.83 158.83 0 0128-4.91C207.45 389 237.79 388 256 388c17.84 0 49.52 1 80.08 3.91a159.16 159.16 0 0128.11 4.93c6.08 1.56 11.85 3 19.84 3.15a16 16 0 0016 16h56a16 16 0 0016-16v-.12A16 16 0 00485.27 389c.26-.79 6.43-19.83 9.72-51.33 1.57-15.17 1.29-38.67-.73-61.45zm-381.93-86.91c8-17 17.15-36.24 33.44-44.35 23.54-11.72 72.33-17 110.23-17s86.69 5.24 110.23 17c16.29 8.11 25.4 27.36 33.44 44.35l1 2.17a8 8 0 01-7.44 11.42C360 202 290 199.12 256 199.12s-104 2.95-137.28 3.85a8 8 0 01-7.44-11.42c.35-.74.72-1.49 1.05-2.24zm11.93 79.63A427.17 427.17 0 0172.42 272c-10.6 0-21.53-3-23.56-12.44-1.39-6.35-1.24-9.92-.49-13.51C49 243 50 240.78 55 240c13-2 20.27.51 41.55 6.78 14.11 4.15 24.29 9.68 30.09 14.06 2.91 2.16 1.36 7.8-2.38 8.1zm221.38 82c-13.16 1.5-39.48.95-89.34.95s-76.17.55-89.33-.95c-13.58-1.51-30.89-14.35-19.07-25.79 7.87-7.54 26.23-13.18 50.68-16.35s34.8-4.8 57.62-4.8 32.12 1 57.62 4.81 44.77 9.52 50.68 16.35c10.78 12.24-5.29 24.19-18.86 25.84zm117.5-91.39c-2 9.48-13 12.44-23.56 12.44a455.91 455.91 0 01-52.84-3.06c-3.06-.29-4.48-5.66-1.38-8.1 5.71-4.49 16-9.91 30.09-14.06 21.28-6.27 33.55-8.78 44.09-6.69 2.57.51 3.93 3.27 4.09 5a40.64 40.64 0 01-.49 14.48z"></path>
  </symbol>
  <symbol xmlns="http://www.w3.org/2000/svg" viewBox="0 0 512 512" id="car-sport-outline">
    <title>Car Sport</title>
    <path d="M469.71 234.6c-7.33-9.73-34.56-16.43-46.08-33.94s-20.95-55.43-50.27-70S288 112 256 112s-88 4-117.36 18.63-38.75 52.52-50.27 70-38.75 24.24-46.08 33.97S29.8 305.84 32.94 336s9 48 9 48h86c14.08 0 18.66-5.29 47.46-8 31.6-3 62.6-4 80.6-4s50 1 81.58 4c28.8 2.73 33.53 8 47.46 8h85s5.86-17.84 9-48-2.04-91.67-9.33-101.4zM400 384h56v16h-56zm-344 0h56v16H56z" fill="none" stroke="currentColor" stroke-linecap="round" stroke-linejoin="round" stroke-width="32"></path>
    <path d="M364.47 309.16c-5.91-6.83-25.17-12.53-50.67-16.35S279 288 256.2 288s-33.17 1.64-57.61 4.81-42.79 8.81-50.66 16.35C136.12 320.6 153.42 333.44 167 335c13.16 1.5 39.47.95 89.31.95s76.15.55 89.31-.95c13.56-1.65 29.62-13.6 18.85-25.84zm67.1-66.11a3.23 3.23 0 00-3.1-3c-11.81-.42-23.8.42-45.07 6.69a93.88 93.88 0 00-30.08 15.06c-2.28 1.78-1.47 6.59 1.39 7.1a455.32 455.32 0 0052.82 3.1c10.59 0 21.52-3 23.55-12.44a52.41 52.41 0 00.49-16.51zm-351.14 0a3.23 3.23 0 013.1-3c11.81-.42 23.8.42 45.07 6.69a93.88 93.88 0 0130.08 15.06c2.28 1.78 1.47 6.59-1.39 7.1a455.32 455.32 0 01-52.82 3.1c-10.59 0-21.52-3-23.55-12.44a52.41 52.41 0 01-.49-16.51z"></path>
    <path fill="none" stroke="currentColor" stroke-linecap="round" stroke-linejoin="round" stroke-width="32" d="M432 192h16m-384 0h16m-2 19s46.35-12 178-12 178 12 178 12"></path>
  </symbol>
  <symbol xmlns="http://www.w3.org/2000/svg" viewBox="0 0 24 24" id="child_friendly">
    <title>child_friendly</title>
    <path d="M17.016 20.016q.609 0 1.055-.445t.445-1.055-.445-1.055-1.055-.445-1.055.445-.445 1.055.445 1.055 1.055.445zm-9 0q.609 0 1.055-.445t.445-1.055-.445-1.055-1.055-.445-1.055.445-.445 1.055.445 1.055 1.055.445zm11.297-4.125q1.172 1.078 1.172 2.625 0 1.453-1.008 2.461t-2.461 1.008q-1.313 0-2.297-.867t-1.172-2.133h-2.109q-.188 1.266-1.148 2.133t-2.273.867q-1.453 0-2.484-1.008t-1.031-2.461q0-2.063 1.828-3.094l-2.109-4.406H2.018V9h3.469l.938 2.016h14.578q0 1.125-.492 2.555t-1.195 2.32zM12.984 2.016q3.328 0 5.672 2.344T21 9.985h-8.016V2.016z"></path>
  </symbol>
  <symbol xmlns="http://www.w3.org/2000/svg" viewBox="0 0 24 24" id="devices">
    <title>devices</title>
    <path d="M21.984 17.016V9.985H18v7.031h3.984zm1.032-9q.422 0 .703.281T24 9v9.984q0 .422-.281.727t-.703.305h-6q-.422 0-.727-.305t-.305-.727V9q0-.422.305-.703t.727-.281h6zM3.984 6v11.016h10.031v3H-.001v-3h2.016V6q0-.797.586-1.406t1.383-.609h18v2.016h-18z"></path>
  </symbol>
  <symbol xmlns="http://www.w3.org/2000/svg" viewBox="0 0 28 28" id="futbol-o">
    <title>futbol-o</title>
    <path d="M9.516 12.75L14 9.5l4.484 3.25L16.781 18h-5.547zM14 0c7.734 0 14 6.266 14 14s-6.266 14-14 14S0 21.734 0 14 6.266 0 14 0zm9.672 21.094C25.141 19.094 26 16.656 26 14v-.047l-1.594 1.391-3.75-3.5.984-5.047 2.094.187a12.018 12.018 0 00-6.078-4.406l.828 1.937L14 6.999 9.516 4.515l.828-1.937a12.018 12.018 0 00-6.078 4.406l2.109-.187.969 5.047-3.75 3.5L2 13.953V14c0 2.656.859 5.094 2.328 7.094l.469-2.063 5.094.625 2.172 4.656-1.813 1.078a11.855 11.855 0 007.5 0l-1.813-1.078 2.172-4.656 5.094-.625z"></path>
  </symbol>
  <symbol xmlns="http://www.w3.org/2000/svg" viewBox="0 0 32 32" id="gift">
    <title>gift</title>
    <path d="M29 10.005H3a1 1 0 00-1 1v9a1 1 0 001 1h1v10a1 1 0 001 1h22a1 1 0 001-1v-10h1a1 1 0 001-1v-9a1 1 0 00-1-1zm-15 19a1 1 0 01-1 1H7a1 1 0 01-1-1v-8a1 1 0 011-1h6a1 1 0 011 1v8zm0-12a1 1 0 01-1 1H5a1 1 0 01-1-1v-4a1 1 0 011-1h8a1 1 0 011 1v4zm12 12a1 1 0 01-1 1h-6a1 1 0 01-1-1v-8a1 1 0 011-1h6a1 1 0 011 1v8zm2-12a1 1 0 01-1 1h-8a1 1 0 01-1-1v-4a1 1 0 011-1h8a1 1 0 011 1v4zm-16.441-7.001h9.2c1.577-1.131 3.068-2.603 3.245-4.207.086-.783-.082-1.93-1.375-2.951-.717-.567-1.445-.854-2.161-.854-2.282 0-3.573 2.798-4.271 5.298-.834-3.187-2.444-7.285-5.209-7.285-.807 0-1.61.349-2.391 1.038-1.54 1.362-1.691 2.778-1.547 3.726.323 2.119 2.455 3.94 4.509 5.235zm8.909-5.612c.221 0 .506.132.823.384.516.406.487.658.479.741-.096.875-1.737 2.25-3.651 3.385.563-2.421 1.483-4.51 2.349-4.51zM10.034 2.89c.251-.222.621-.486.954-.486 1.238 0 2.511 3.25 3.253 6.41-2.338-1.246-4.755-3.013-4.971-4.431-.029-.196-.109-.721.764-1.493z"></path>
  </symbol>
  <symbol xmlns="http://www.w3.org/2000/svg" viewBox="0 0 32 32" id="gift1">
    <title>gift1</title>
    <path d="M24.11 10a12.62 12.62 0 001.608-1.348c1.044-1.044 1.742-2.328 1.966-3.616.246-1.412-.115-2.723-.988-3.597-.697-.697-1.641-1.065-2.73-1.065-1.551 0-3.185.744-4.483 2.043-2.077 2.077-3.288 4.945-3.94 6.991-.482-2.056-1.444-4.833-3.313-6.702-1.003-1.003-2.285-1.518-3.495-1.518-.989 0-1.931.344-2.633 1.046-1.562 1.562-1.351 4.306.471 6.128.65.65 1.409 1.189 2.21 1.638H2.001v8h2v14h24V18h2v-8h-5.89zm-3.037-5.993c.866-.866 1.948-1.384 2.892-1.384.334 0 .803.07 1.139.406.813.813.357 2.697-.977 4.031-1.373 1.373-3.221 2.318-4.826 2.939h-1.584c.58-1.798 1.627-4.264 3.356-5.993zM7.31 5.028c-.022-.285-.002-.82.381-1.203.32-.32.743-.387 1.042-.387.664 0 1.358.313 1.904.859 1.059 1.058 1.93 2.743 2.521 4.871l.047.171-.171-.047c-2.128-.591-3.813-1.462-4.871-2.521-.495-.495-.805-1.13-.853-1.743zM14 30H6V17h8v13zm0-14H4v-4h10v4zm12 14h-8V17h8v13zm2-14H18v-4h10v4z"></path>
  </symbol>
  <symbol xmlns="http://www.w3.org/2000/svg" viewBox="0 0 20 20" id="gift2">
    <title>gift2</title>
    <path d="M14.83 4H20v6h-1v10H1V10H0V4h5.17A3 3 0 0110.003.762L10 .76a3 3 0 014.823 3.261L14.83 4zM8 10H3v8h5v-8zm4 0v8h5v-8h-5zM8 6H2v2h6V6zm4 0v2h6V6h-6zM8 4a1 1 0 000-2 1 1 0 000 2zm4 0a1 1 0 000-2 1 1 0 000 2z"></path>
  </symbol>
  <symbol xmlns="http://www.w3.org/2000/svg" viewBox="0 0 24 24" id="gift3">
    <title>gift3</title>
    <path d="M11 13v8H5v-8zm2 8v-8h6v8zM7.5 6A1.497 1.497 0 016 4.5 1.497 1.497 0 017.5 3c.629 0 1.142.223 1.584.586.376.308.701.719.976 1.177.241.401.433.821.58 1.203zm5.846 0c.161-.416.353-.836.593-1.237.275-.459.601-.869.976-1.177.443-.363.956-.586 1.585-.586A1.497 1.497 0 0118 4.5 1.497 1.497 0 0116.5 6zM11 8v3H3V8h4.5zm8.663-2c.216-.455.337-.963.337-1.5 0-.966-.393-1.843-1.025-2.475S17.466 1 16.5 1c-1.16 0-2.109.43-2.852 1.039-.603.494-1.068 1.103-1.423 1.694-.08.133-.155.266-.225.398a8.484 8.484 0 00-.225-.398c-.355-.591-.82-1.2-1.423-1.694C9.609 1.43 8.66 1 7.5 1c-.966 0-1.843.393-2.475 1.025S4 3.534 4 4.5c0 .537.121 1.045.337 1.5H2a1 1 0 00-1 1v5a1 1 0 001 1h1v9a1 1 0 001 1h16a1 1 0 001-1v-9h1a1 1 0 001-1V7a1 1 0 00-1-1zM13 8h8v3h-8z"></path>
  </symbol>
  <symbol xmlns="http://www.w3.org/2000/svg" viewBox="0 0 36 28" id="handshake-o">
    <title>handshake-o</title>
    <path d="M3 18c1.313 0 1.313-2 0-2s-1.313 2 0 2zm23.016-.906c-1.234-1.609-2.438-3.25-3.844-4.719l-1.953 2.188c-1.719 1.953-4.797 1.906-6.469-.094a3.806 3.806 0 01.031-4.922l2.766-3.219C15.578 5.828 14.406 6 13.36 6c-.922 0-1.813.375-2.469 1.031L8.422 9.5H6V18c.688 0 1.312-.094 1.859.438L12.5 23c.953.922 2.187 1.734 3.547 1.734.703 0 1.453-.234 1.953-.734 1.172.406 2.531-.25 2.891-1.453a2.51 2.51 0 001.984-.688c.359-.328.828-.984.781-1.5.141.141.484.156.672.156 1.859 0 2.828-1.953 1.687-3.422zM28.5 18H30v-8h-1.453l-2.453-2.812A3.543 3.543 0 0023.453 6h-2.609c-.875 0-1.719.391-2.281 1.047l-3.266 3.797a1.82 1.82 0 00-.016 2.344c.891 1.062 2.531 1.078 3.453.047l3.016-3.406c.719-.797 2.031-.047 1.703.969.594.688 1.234 1.359 1.813 2.047.781.969 1.531 1.984 2.297 2.969.484.625.844 1.375.938 2.188zm4.5 0c1.313 0 1.313-2 0-2s-1.313 2 0 2zm3-9v10c0 .547-.453 1-1 1h-6.781c-.562 1.359-1.797 2.266-3.234 2.469-.672.984-1.703 1.734-2.859 1.984-.859 1.094-2.25 1.75-3.641 1.656-2.578 1.453-5.484.187-7.406-1.703L6.595 20H1.001c-.547 0-1-.453-1-1V8.5c0-.547.453-1 1-1h6.578C9.392 5.687 10.641 4 13.36 4h1.828c1.016 0 2 .313 2.828.875A5.044 5.044 0 0120.844 4h2.609c2.969 0 4.203 1.937 6 4H35c.547 0 1 .453 1 1z"></path>
  </symbol>
  <symbol xmlns="http://www.w3.org/2000/svg" viewBox="0 0 20 20" id="home">
    <title>home</title>
    <path d="M8 20H3V10H0L10 0l10 10h-3v10h-5v-6H8v6z"></path>
  </symbol>
  <symbol xmlns="http://www.w3.org/2000/svg" viewBox="0 0 32 32" id="leaf">
    <title>leaf</title>
    <path d="M31.604 4.203C28.143 1.58 22.817.014 17.357.014 10.603.014 5.1 2.372 2.258 6.483.923 8.414.185 10.7.064 13.279c-.108 2.296.278 4.835 1.146 7.567C4.175 11.959 12.454 4.999 22 4.999c0 0-8.932 2.351-14.548 9.631-.003.004-.078.097-.207.272a21.055 21.055 0 00-2.846 5.166 30.771 30.771 0 00-2.4 11.931h4s-.607-3.819.449-8.212c1.747.236 3.308.353 4.714.353 3.677 0 6.293-.796 8.231-2.504 1.736-1.531 2.694-3.587 3.707-5.764 1.548-3.325 3.302-7.094 8.395-10.005a1 1 0 00.108-1.666z"></path>
  </symbol>
  <symbol xmlns="http://www.w3.org/2000/svg" viewBox="0 0 28 28" id="leaf1">
    <title>leaf1</title>
    <path d="M20 11c0-.547-.453-1-1-1-5.531 0-9.094 2.312-12.703 6.297C6.11 16.5 6 16.719 6 17c0 .547.453 1 1 1 .281 0 .5-.109.703-.297.766-.688 1.453-1.437 2.203-2.141 2.828-2.547 5.25-3.563 9.094-3.563.547 0 1-.453 1-1zm8-3.094c0 1-.109 2.016-.313 3.016-1 4.859-4.125 8.016-8.469 10.172-2.109 1.062-4.469 1.687-6.844 1.687-1.5 0-3.047-.25-4.469-.734-.75-.25-2.25-1.234-2.875-1.234-.781 0-1.719 3.187-3.078 3.187-.984 0-1.281-.484-1.703-1.203-.141-.266-.25-.359-.25-.688 0-1.625 3.094-2.891 3.094-3.797 0-.141-.406-.969-.469-1.281a9.35 9.35 0 01-.141-1.625c0-4.969 3.953-8.516 8.391-9.984 3.203-1.062 10.016.172 12.187-1.891C23.92 2.734 24.342 2 25.655 2c1.766 0 2.344 4.578 2.344 5.906z"></path>
  </symbol>
  <symbol xmlns="http://www.w3.org/2000/svg" viewBox="0 0 32 32" id="mobile">
    <title>mobile</title>
    <path d="M1.5 32h14a.5.5 0 000-1h-14a.5.5 0 01-.5-.5v-29a.5.5 0 01.5-.5h21a.5.5 0 01.5.5v5a.5.5 0 001 0v-5c0-.827-.673-1.5-1.5-1.5h-21C.673 0 0 .673 0 1.5v29c0 .827.673 1.5 1.5 1.5zM18 10.5v20c0 .827.673 1.5 1.5 1.5h11c.827 0 1.5-.673 1.5-1.5v-20c0-.827-.673-1.5-1.5-1.5h-11c-.827 0-1.5.673-1.5 1.5zm13 0v20a.5.5 0 01-.5.5h-11a.5.5 0 01-.5-.5v-20a.5.5 0 01.5-.5h11a.5.5 0 01.5.5zM11 28a1 1 0 102 0 1 1 0 00-2 0zm13 0a1 1 0 102 0 1 1 0 00-2 0z"></path>
  </symbol>
  <symbol xmlns="http://www.w3.org/2000/svg" viewBox="0 0 26 28" id="paw">
    <title>paw</title>
    <path d="M12.187 7.375c0 1.75-.906 3.828-2.922 3.828-2.531 0-4.062-3.187-4.062-5.375C5.203 4.078 6.109 2 8.125 2c2.547 0 4.062 3.187 4.062 5.375zm-5.343 7.547c0 1.516-.797 3.094-2.516 3.094-2.5 0-4.328-3.063-4.328-5.328 0-1.516.812-3.109 2.516-3.109 2.5 0 4.328 3.078 4.328 5.344zM13 14.5c3.828 0 9 5.516 9 9.203C22 25.687 20.375 26 18.781 26 16.687 26 15 24.594 13 24.594c-2.094 0-3.875 1.391-6.141 1.391-1.516 0-2.859-.516-2.859-2.281 0-3.703 5.172-9.203 9-9.203zm3.734-3.297c-2.016 0-2.922-2.078-2.922-3.828C13.812 5.187 15.328 2 17.874 2c2.016 0 2.922 2.078 2.922 3.828 0 2.188-1.531 5.375-4.062 5.375zm6.75-1.625c1.703 0 2.516 1.594 2.516 3.109 0 2.266-1.828 5.328-4.328 5.328-1.719 0-2.516-1.578-2.516-3.094 0-2.266 1.828-5.344 4.328-5.344z"></path>
  </symbol>
  <symbol xmlns="http://www.w3.org/2000/svg" viewBox="0 0 19 32" id="phone1">
    <title>phone1</title>
    <path d="M1.5 32h16c.827 0 1.5-.673 1.5-1.5v-29c0-.827-.673-1.5-1.5-1.5h-16C.673 0 0 .673 0 1.5v29c0 .827.673 1.5 1.5 1.5zM1 1.5a.5.5 0 01.5-.5h16a.5.5 0 01.5.5v29a.5.5 0 01-.5.5h-16a.5.5 0 01-.5-.5v-29zM2.5 27h14a.5.5 0 00.5-.5v-21a.5.5 0 00-.5-.5h-14a.5.5 0 00-.5.5v21a.5.5 0 00.5.5zM3 6h13v20H3V6zm6 23a1 1 0 102 0 1 1 0 00-2 0zM7.5 4h4a.5.5 0 000-1h-4a.5.5 0 000 1z"></path>
  </symbol>
  <symbol xmlns="http://www.w3.org/2000/svg" viewBox="0 0 32 32" id="phone2">
    <title>phone2</title>
    <path d="M24 0H8a3 3 0 00-3 3v26a3 3 0 003 3h16c1.656 0 3-1.344 3-3V3a3 3 0 00-3-3zm1 29c0 .551-.449 1-1 1H8a1 1 0 01-1-1v-2.004h18V29zm0-3.004H7V6h18v19.996zM25 5H7V3a1 1 0 011-1h16c.551 0 1 .448 1 1v2zm-7-1.5a.5.5 0 01-.5.5h-3a.499.499 0 110-1h3a.5.5 0 01.5.5zm-1 24.996c0 .275-.225.5-.5.5h-1a.5.5 0 110-1h1a.5.5 0 01.5.5z"></path>
  </symbol>
  <symbol xmlns="http://www.w3.org/2000/svg" viewBox="0 0 24 24" id="smartphone">
    <title>smartphone</title>
    <path d="M7 1a2.997 2.997 0 00-3 3v16a2.997 2.997 0 003 3h10a2.997 2.997 0 003-3V4a2.997 2.997 0 00-3-3zm0 2h10c.276 0 .525.111.707.293S18 3.724 18 4v16c0 .276-.111.525-.293.707S17.276 21 17 21H7c-.276 0-.525-.111-.707-.293S6 20.276 6 20V4c0-.276.111-.525.293-.707S6.724 3 7 3zm5 16a1 1 0 100-2 1 1 0 000 2z"></path>
  </symbol>
  <symbol xmlns="http://www.w3.org/2000/svg" viewBox="0 0 32 32" id="soccer">
    <title>soccer</title>
    <path d="M28.789 10.153l-.021-.046.029.005-.008.041zM25.25 22.217l-4.668.194-2.438-4.285 2.523-4.556 4.887.162 2.086 4.259-2.39 4.226zm-12.542-4.152l-2.449-4.431 2.56-4.271 5.221-.08 2.564 4.253-2.52 4.547-5.376-.018zm.108-8.775l-1.93-3.323 2.564-3.128 4.475-.143L20.31 5.65l-2.283 3.56-5.211.08zm-2.442 12.959l-4.135-.404-1.992-3.983 1.738-4.038 4.205-.161 2.45 4.433-2.266 4.153zm14.437-16.09l.396-.787a14.119 14.119 0 013.561 4.735l-1.482-.236-2.475-3.712zm-4.426-.534l-2.389-2.957.383-.465c-2.141-.358-4.094-.175-5.381.127.009.006.319.398.383.479l-2.565 3.128-3.825.644-.341-1.043-.059.018C9.085 3.308 12.377 1.927 16 1.927c3.498 0 6.689 1.283 9.15 3.395l-.404.804-4.361-.501zM4.639 10.222l-1.608.379.018.07 1.58-.372 1.3 3.472-1.744 4.053c-.236-.023-2.061-.198-2.061-.087.32 2.685 1.339 5.021 3.094 7.206l1.03-3.023 4.128.403 2.607 3.956-1.8 2.931C5.788 27.239 1.927 22.077 1.927 16c0-4.146 1.803-7.86 4.655-10.436l.346 1.062-2.289 3.596zm13.22 16.213l2.146 3.005.061-.043-2.133-2.983 2.65-3.93 4.664-.193a417.73 417.73 0 011.281 2.898c1.967-2.303 2.955-4.611 3.312-7.242l-2.139.01-2.088-4.268 1.684-3.741 1.486.237.004-.031a14.002 14.002 0 011.283 5.847c0 7.772-6.301 14.073-14.072 14.073-1.669 0-3.262-.306-4.747-.839l1.797-2.925 4.811.125zm-6.625 2.832l-.062-.038.012-.02.07.025-.02.033zM6.581 5.56l.011-.004a.082.082 0 00-.009.008l-.002-.004zm18.583-.265l.064.032-.021.045-.057-.051.014-.026z"></path>
  </symbol>
  <symbol xmlns="http://www.w3.org/2000/svg" viewBox="0 0 32 32" id="soccer-ball">
    <title>soccer-ball</title>
    <path d="M8.816 14.551l3.546 1.505 1.252 4.303-2.464 2.552-4.045.222a11.443 11.443 0 01-2.094-6.125l3.804-2.457zm.088-1.049L7.362 9.516a11.527 11.527 0 015.113-3.792L16 8.593v3.814l-3.317 2.7-3.779-1.604zm3.218 9.841L14.385 21h4.118l2.351 2.435-1.086 4.095c-1.036.306-2.132.471-3.267.471s-2.232-.164-3.267-.471l-1.11-4.186zm9.61-.439l-2.371-2.456 1.29-4.434 3.5-1.486 3.839 2.479a11.434 11.434 0 01-2.094 6.125l-4.164-.229zm2.381-9.445l-3.826 1.624L17 12.407V8.593l3.525-2.869c2.043.763 3.81 2.09 5.113 3.792l-1.525 3.942zM16.5 29C23.404 29 29 23.404 29 16.5S23.404 4 16.5 4 4 9.596 4 16.5 9.596 29 16.5 29z"></path>
  </symbol>
  <symbol xmlns="http://www.w3.org/2000/svg" viewBox="0 0 32 32" id="suitcase">
    <title>suitcase</title>
    <path d="M27 29H4a2 2 0 01-2-2V15s5.221 2.685 10 3.784V20a1 1 0 001 1h5a1 1 0 001-1v-1.216C23.778 17.685 29 15 29 15v12a2 2 0 01-2 2zM17 17a1 1 0 011 1v1a1 1 0 01-1 1h-3a1 1 0 01-1-1v-1a1 1 0 011-1h3zm2 0a1 1 0 00-1-1h-5a1 1 0 00-1 1v.896C7.221 16.764 2 14 2 14v-4a2 2 0 012-2h6V6a2 2 0 012-2h7a2 2 0 012 2v2h6a2 2 0 012 2v4s-5.222 2.764-10 3.896V17zm0-10a1 1 0 00-1-1h-5a1 1 0 00-1 1v1h7V7z"></path>
  </symbol>
  <symbol xmlns="http://www.w3.org/2000/svg" viewBox="0 0 32 32" id="tennis-ball">
    <title>tennis-ball</title>
    <path d="M25 7.335C22.77 5.266 19.783 4 16.5 4S10.23 5.265 8 7.335c2.46 2.283 4 5.544 4 9.165s-1.54 6.882-4 9.165C10.23 27.734 13.217 29 16.5 29s6.27-1.265 8.5-3.335c-2.46-2.283-4-5.544-4-9.165s1.54-6.882 4-9.165zm.706.709C27.751 10.27 29 13.239 29 16.5s-1.249 6.23-3.294 8.456C23.427 22.855 22 19.844 22 16.5s1.427-6.355 3.706-8.456zm-18.412 0C5.249 10.27 4 13.239 4 16.5s1.249 6.23 3.294 8.456C9.573 22.855 11 19.844 11 16.5s-1.427-6.355-3.706-8.456z"></path>
  </symbol>
  <symbol xmlns="http://www.w3.org/2000/svg" viewBox="0 0 32 32" id="tie">
    <title>tie</title>
    <path d="M16.902 8.968l1.248-5.924h-6.349l1.297 5.924h3.804zm-3.831 1.109l-4.2 13.383 6.35 5.275 5.861-5.275-4.104-13.383h-3.907zm5.763 1.857l2.932 8.06h1.758v-1.808l-4.69-6.252z"></path>
  </symbol>
  <symbol xmlns="http://www.w3.org/2000/svg" viewBox="0 0 20 20" id="tree">
    <title>tree</title>
    <path d="M20 10c0-1.361-.758-2.616-2.031-3.622-.002-.001-.004-.001-.005-.003C17.602 2.803 14.177 0 10 0S2.398 2.803 2.036 6.375c-.001.002-.003.002-.005.003C.758 7.384 0 8.639 0 10c0 3.112 3.947 5.669 9 5.97V17c0 1-1.821 1.911-1.821 1.911a.227.227 0 00-.109.277S7.375 20 8 20s1.124-.5 2.374-.5 2.439.432 2.439.432a.342.342 0 00.329-.073l.717-.717c.078-.078.058-.173-.046-.212 0 0-1.812-.68-1.812-1.93v-1.121C16.565 15.324 20 12.903 20 10zM2 10c0-1.019.768-1.945 2.022-2.651C4.012 7.233 4 7.117 4 7c0-2.762 2.687-5 6-5s6 2.238 6 5c0 .117-.012.233-.021.349C17.232 8.055 18 8.981 18 10c0 1.864-2.551 3.424-5.999 3.869v-.668a.53.53 0 01.145-.337l1.833-1.726a.534.534 0 00.146-.337V9.95c0-.11-.078-.155-.172-.099l-1.779 1.047c-.096.056-.173.012-.173-.099V7.2c0-.11-.085-.172-.19-.137l-2.621.874a.297.297 0 00-.189.263v2.6c0 .11-.079.158-.177.107L6.802 9.843a.289.289 0 00-.318.048l-.342.342a.185.185 0 00.009.273l2.7 2.361c.083.073.15.222.15.332v.765C5.056 13.719 2 12.04 2 10z"></path>
  </symbol>
  <symbol xmlns="http://www.w3.org/2000/svg" viewBox="0 0 32 32" id="truck">
    <title>truck</title>
    <path d="M32 18l-4-8h-6V6c0-1.1-.9-2-2-2H2C.9 4 0 4.9 0 6v16l2 2h2.536a4 4 0 106.928 0h11.073a4 4 0 106.926 0H32v-6zm-10 0v-6h4.146l3 6H22z"></path>
  </symbol>
  <symbol xmlns="http://www.w3.org/2000/svg" viewBox="0 0 32 32" id="truck1">
    <title>truck1</title>
    <path d="M24.832 11.445A1.001 1.001 0 0024 11h-1a1 1 0 00-1 1v6a1 1 0 001 1h4a1 1 0 001-1v-1.5c0-.197-.059-.391-.168-.555l-3-4.5zM27 18h-4v-6h1l3 4.5V18zm4.496-2.664l-4-6A2.995 2.995 0 0025 8h-4V6c0-1.654-1.346-3-3-3H3C1.346 3 0 4.346 0 6v11c0 1.654 1.346 3 3 3v3c0 1.654 1.346 3 3 3h1.142c.447 1.721 2 3 3.859 3 1.857 0 3.41-1.279 3.857-3h5.282c.447 1.721 2 3 3.859 3 1.857 0 3.41-1.279 3.857-3H29c1.654 0 3-1.346 3-3v-6c0-.594-.174-1.17-.504-1.664zM3 18a1 1 0 01-1-1V6a1 1 0 011-1h15a1 1 0 011 1v11a1 1 0 01-1 1H3zm8.001 9a2 2 0 110-4 2 2 0 010 4zM24 27a2 2 0 110-4 2 2 0 010 4zm6-4a1 1 0 01-1 1h-1.143c-.447-1.721-2-3-3.857-3-1.859 0-3.412 1.279-3.859 3h-5.282c-.447-1.721-2-3-3.857-3-1.859 0-3.412 1.279-3.859 3H6a1 1 0 01-1-1v-3h13c1.654 0 3-1.346 3-3v-7h4c.334 0 .646.167.832.445l4 6c.109.164.168.358.168.555v6z"></path>
  </symbol>
  <symbol xmlns="http://www.w3.org/2000/svg" viewBox="0 0 29 28" id="truck2">
    <title>truck2</title>
    <path d="M10 22c0-1.094-.906-2-2-2s-2 .906-2 2 .906 2 2 2 2-.906 2-2zm-6-8h6v-4H7.531a.939.939 0 00-.344.141L4.14 13.188a.939.939 0 00-.141.344v.469zm20 8c0-1.094-.906-2-2-2s-2 .906-2 2 .906 2 2 2 2-.906 2-2zm4-17v16c0 1.156-1.219 1-2 1 0 2.203-1.797 4-4 4s-4-1.797-4-4h-6c0 2.203-1.797 4-4 4s-4-1.797-4-4H3c-.781 0-2 .156-2-1 0-.547.453-1 1-1v-5c0-1.109-.156-2.344.703-3.203l3.094-3.094C6.188 8.312 6.938 8 7.5 8H10V5c0-.547.453-1 1-1h16c.547 0 1 .453 1 1z"></path>
  </symbol>
  <symbol xmlns="http://www.w3.org/2000/svg" viewBox="0 0 24 24" id="truck3">
    <title>truck3</title>
    <path d="M15 15H2V4h13v4zm2-6h2.586L22 11.414V15h-5zM7 18.5A1.497 1.497 0 015.5 20 1.497 1.497 0 014 18.5 1.497 1.497 0 015.5 17 1.497 1.497 0 017 18.5zm15 0c0-.537-.121-1.045-.337-1.5H23a1 1 0 001-1v-5a.997.997 0 00-.293-.707l-3-3A.997.997 0 0020 7h-3V3a1 1 0 00-1-1H1a1 1 0 00-1 1v13a1 1 0 001 1h1.337A3.487 3.487 0 002 18.5c0 .966.393 1.843 1.025 2.475S4.534 22 5.5 22s1.843-.393 2.475-1.025S9 19.466 9 18.5c0-.537-.121-1.045-.337-1.5h6.674A3.487 3.487 0 0015 18.5c0 .966.393 1.843 1.025 2.475S17.534 22 18.5 22s1.843-.393 2.475-1.025S22 19.466 22 18.5zm-2 0a1.497 1.497 0 01-1.5 1.5 1.497 1.497 0 01-1.5-1.5 1.497 1.497 0 011.5-1.5 1.497 1.497 0 011.5 1.5z"></path>
  </symbol>
  <symbol xmlns="http://www.w3.org/2000/svg" viewBox="0 0 32 32" id="t-shirt">
    <title>t-shirt</title>
    <path d="M31.25 6.438l-5-4A2.003 2.003 0 0025 2H7a2 2 0 00-1.25.438l-5 4a2.001 2.001 0 00-.647 2.195l2 6A2 2 0 005 15.732V28a2 2 0 002 2h18a2 2 0 002-2V15.732a2.002 2.002 0 001.648.16 1.998 1.998 0 001.248-1.259l2-6a2 2 0 00-.646-2.195zM19.754 4C19.201 5.161 17.736 6 16 6s-3.202-.839-3.754-2h7.508zM28 14l-3-2v16H7V12l-3 2-2-6 5-4h4.177c.557 1.722 2.496 3 4.823 3s4.266-1.278 4.822-3H25l5 4-2 6z"></path>
  </symbol>
  <symbol xmlns="http://www.w3.org/2000/svg" viewBox="0 0 32 32" id="volleyball-water">
    <title>volleyball-water</title>
    <path d="M19.856 22.672a17.914 17.914 0 003.365-5.245 16.541 16.541 0 014.991 3.451c.029-.076-.079.213-.17.43-2.515 1.579-5.268 2.18-8.187 1.364zm-1.075-.363a16.879 16.879 0 003.487-5.273 16.454 16.454 0 00-5.506-1.034 17.467 17.467 0 01-3.433 4.137c1.294.229 2.596.694 3.895 1.425.523.294 1.043.542 1.557.745zm-7.603-2.339A17.947 17.947 0 017.894 7.434c.035-.033-.43.42-.68.697A12.456 12.456 0 003.999 16.5c0 1.842.398 3.59 1.113 5.165 1.955-1.049 3.992-1.658 6.065-1.695zm17.623-5.701c-3.593-3.423-8.638-5.233-13.883-4.554a16.469 16.469 0 001.857 5.287 17.436 17.436 0 0111.78 4.813c-.017.062.088-.327.146-.589a12.553 12.553 0 00.218-4.146c-.058-.511-.161-1.044-.119-.811zm-.452-1.761A17.954 17.954 0 0014.78 8.696c-.16-1.543-.1-3.092.169-4.601-.051.006.18-.022.348-.038.396-.038.798-.057 1.204-.057 5.241 0 9.728 3.225 11.586 7.799.144.355.305.835.263.709zM9.078 6.441a16.933 16.933 0 003.199 13.282 16.468 16.468 0 003.627-4.233 17.428 17.428 0 01-1.998-11.221c.032-.007-.176.038-.311.07a12.429 12.429 0 00-3.922 1.688c-.284.185-.672.471-.595.413zM3 25c.432-.319.901-.634 1.405-.934 4.032-2.406 8.441-2.965 12.82-.502 4.021 2.262 7.786 1.761 11.12-.452A13.232 13.232 0 0030 21.813v1.322c-.341.277-.709.549-1.102.81-3.622 2.405-7.778 2.957-12.164.491-4.022-2.262-8.065-1.75-11.817.489-.713.425-1.353.881-1.911 1.336L3 26.266V25zm2.979 1.232c3.592-1.665 7.43-1.813 11.245.333 3.481 1.958 6.771 1.846 9.755.344v1.109c-3.143 1.433-6.616 1.46-10.245-.581-3.645-2.05-7.307-1.822-10.755-.094v-1.11z"></path>
  </symbol>
</svg>